<mxfile host="app.diagrams.net" modified="2023-12-08T00:28:45.220Z" agent="Mozilla/5.0 (Windows NT 10.0; Win64; x64) AppleWebKit/537.36 (KHTML, like Gecko) Chrome/119.0.0.0 Safari/537.36" etag="1oxZfUvTVX93wE4abENL" version="22.1.7" type="device">
  <diagram id="C5RBs43oDa-KdzZeNtuy" name="Page-1">
    <mxGraphModel dx="2049" dy="1129" grid="1" gridSize="10" guides="1" tooltips="1" connect="0" arrows="1" fold="1" page="1" pageScale="1" pageWidth="827" pageHeight="1169" math="0" shadow="0">
      <root>
        <mxCell id="WIyWlLk6GJQsqaUBKTNV-0" />
        <mxCell id="WIyWlLk6GJQsqaUBKTNV-1" parent="WIyWlLk6GJQsqaUBKTNV-0" />
        <mxCell id="hOxMr86rGuduZTs0c4Mz-0" value="" style="edgeStyle=orthogonalEdgeStyle;rounded=0;orthogonalLoop=1;jettySize=auto;html=1;" edge="1" parent="WIyWlLk6GJQsqaUBKTNV-1" source="hOxMr86rGuduZTs0c4Mz-1" target="hOxMr86rGuduZTs0c4Mz-3">
          <mxGeometry relative="1" as="geometry" />
        </mxCell>
        <mxCell id="hOxMr86rGuduZTs0c4Mz-1" value="초음파1번 적외선 센서 감지" style="rounded=0;whiteSpace=wrap;html=1;" vertex="1" parent="WIyWlLk6GJQsqaUBKTNV-1">
          <mxGeometry x="371.995" y="122" width="180" height="60" as="geometry" />
        </mxCell>
        <mxCell id="hOxMr86rGuduZTs0c4Mz-2" value="" style="edgeStyle=orthogonalEdgeStyle;rounded=0;orthogonalLoop=1;jettySize=auto;html=1;" edge="1" parent="WIyWlLk6GJQsqaUBKTNV-1" source="hOxMr86rGuduZTs0c4Mz-3" target="hOxMr86rGuduZTs0c4Mz-5">
          <mxGeometry relative="1" as="geometry" />
        </mxCell>
        <mxCell id="hOxMr86rGuduZTs0c4Mz-3" value="&lt;div style=&quot;border-color: var(--border-color);&quot;&gt;서버에게 감지상태 전달&lt;/div&gt;" style="rounded=0;whiteSpace=wrap;html=1;" vertex="1" parent="WIyWlLk6GJQsqaUBKTNV-1">
          <mxGeometry x="371.995" y="212" width="180" height="60" as="geometry" />
        </mxCell>
        <mxCell id="hOxMr86rGuduZTs0c4Mz-4" value="" style="edgeStyle=orthogonalEdgeStyle;rounded=0;orthogonalLoop=1;jettySize=auto;html=1;" edge="1" parent="WIyWlLk6GJQsqaUBKTNV-1" source="hOxMr86rGuduZTs0c4Mz-5" target="hOxMr86rGuduZTs0c4Mz-7">
          <mxGeometry relative="1" as="geometry" />
        </mxCell>
        <mxCell id="hOxMr86rGuduZTs0c4Mz-5" value="함수에 센서값 삽입" style="rounded=0;whiteSpace=wrap;html=1;" vertex="1" parent="WIyWlLk6GJQsqaUBKTNV-1">
          <mxGeometry x="371.995" y="302" width="180" height="60" as="geometry" />
        </mxCell>
        <mxCell id="hOxMr86rGuduZTs0c4Mz-6" value="" style="edgeStyle=orthogonalEdgeStyle;rounded=0;orthogonalLoop=1;jettySize=auto;html=1;" edge="1" parent="WIyWlLk6GJQsqaUBKTNV-1" source="hOxMr86rGuduZTs0c4Mz-7" target="hOxMr86rGuduZTs0c4Mz-9">
          <mxGeometry relative="1" as="geometry" />
        </mxCell>
        <mxCell id="hOxMr86rGuduZTs0c4Mz-7" value="&lt;div style=&quot;border-color: var(--border-color);&quot;&gt;초음파 2번 적외선 센서 감지&lt;/div&gt;" style="rounded=0;whiteSpace=wrap;html=1;" vertex="1" parent="WIyWlLk6GJQsqaUBKTNV-1">
          <mxGeometry x="371.995" y="392" width="180" height="60" as="geometry" />
        </mxCell>
        <mxCell id="hOxMr86rGuduZTs0c4Mz-8" value="" style="edgeStyle=orthogonalEdgeStyle;rounded=0;orthogonalLoop=1;jettySize=auto;html=1;" edge="1" parent="WIyWlLk6GJQsqaUBKTNV-1" source="hOxMr86rGuduZTs0c4Mz-9" target="hOxMr86rGuduZTs0c4Mz-31">
          <mxGeometry relative="1" as="geometry" />
        </mxCell>
        <mxCell id="hOxMr86rGuduZTs0c4Mz-9" value="&lt;div style=&quot;border-color: var(--border-color);&quot;&gt;DC모터 정지&lt;br&gt;&lt;/div&gt;" style="rounded=0;whiteSpace=wrap;html=1;" vertex="1" parent="WIyWlLk6GJQsqaUBKTNV-1">
          <mxGeometry x="371.995" y="488" width="180" height="60" as="geometry" />
        </mxCell>
        <mxCell id="hOxMr86rGuduZTs0c4Mz-10" value="" style="edgeStyle=orthogonalEdgeStyle;rounded=0;orthogonalLoop=1;jettySize=auto;html=1;" edge="1" parent="WIyWlLk6GJQsqaUBKTNV-1" source="hOxMr86rGuduZTs0c4Mz-11" target="hOxMr86rGuduZTs0c4Mz-13">
          <mxGeometry relative="1" as="geometry" />
        </mxCell>
        <mxCell id="hOxMr86rGuduZTs0c4Mz-11" value="&lt;div style=&quot;border-color: var(--border-color);&quot;&gt;DC모터 재구동&lt;br&gt;&lt;/div&gt;" style="rounded=0;whiteSpace=wrap;html=1;" vertex="1" parent="WIyWlLk6GJQsqaUBKTNV-1">
          <mxGeometry x="375.495" y="940" width="180" height="60" as="geometry" />
        </mxCell>
        <mxCell id="hOxMr86rGuduZTs0c4Mz-12" value="" style="edgeStyle=orthogonalEdgeStyle;rounded=0;orthogonalLoop=1;jettySize=auto;html=1;" edge="1" parent="WIyWlLk6GJQsqaUBKTNV-1" source="hOxMr86rGuduZTs0c4Mz-13" target="hOxMr86rGuduZTs0c4Mz-14">
          <mxGeometry relative="1" as="geometry" />
        </mxCell>
        <mxCell id="hOxMr86rGuduZTs0c4Mz-13" value="&lt;div style=&quot;border-color: var(--border-color);&quot;&gt;eds 공정 적외선 센서 감지&lt;br&gt;&lt;/div&gt;" style="rounded=0;whiteSpace=wrap;html=1;" vertex="1" parent="WIyWlLk6GJQsqaUBKTNV-1">
          <mxGeometry x="375.495" y="1030" width="180" height="60" as="geometry" />
        </mxCell>
        <mxCell id="hOxMr86rGuduZTs0c4Mz-14" value="DC모터 정지" style="rounded=1;whiteSpace=wrap;html=1;" vertex="1" parent="WIyWlLk6GJQsqaUBKTNV-1">
          <mxGeometry x="405.495" y="1120" width="120" height="60" as="geometry" />
        </mxCell>
        <mxCell id="hOxMr86rGuduZTs0c4Mz-15" value="" style="edgeStyle=orthogonalEdgeStyle;rounded=0;orthogonalLoop=1;jettySize=auto;html=1;" edge="1" parent="WIyWlLk6GJQsqaUBKTNV-1" source="hOxMr86rGuduZTs0c4Mz-16" target="hOxMr86rGuduZTs0c4Mz-1">
          <mxGeometry relative="1" as="geometry" />
        </mxCell>
        <mxCell id="hOxMr86rGuduZTs0c4Mz-16" value="START" style="ellipse;whiteSpace=wrap;html=1;" vertex="1" parent="WIyWlLk6GJQsqaUBKTNV-1">
          <mxGeometry x="371.995" y="20" width="178" height="70" as="geometry" />
        </mxCell>
        <mxCell id="hOxMr86rGuduZTs0c4Mz-17" value="" style="edgeStyle=orthogonalEdgeStyle;rounded=0;orthogonalLoop=1;jettySize=auto;html=1;" edge="1" parent="WIyWlLk6GJQsqaUBKTNV-1" source="hOxMr86rGuduZTs0c4Mz-18" target="hOxMr86rGuduZTs0c4Mz-23">
          <mxGeometry relative="1" as="geometry" />
        </mxCell>
        <mxCell id="hOxMr86rGuduZTs0c4Mz-18" value="&lt;div style=&quot;border-color: var(--border-color);&quot;&gt;서버에게 초음파 센서값 전달&lt;br&gt;&lt;/div&gt;" style="rounded=0;whiteSpace=wrap;html=1;" vertex="1" parent="WIyWlLk6GJQsqaUBKTNV-1">
          <mxGeometry x="371.995" y="665" width="180" height="60" as="geometry" />
        </mxCell>
        <mxCell id="hOxMr86rGuduZTs0c4Mz-19" value="" style="edgeStyle=orthogonalEdgeStyle;rounded=0;orthogonalLoop=1;jettySize=auto;html=1;" edge="1" parent="WIyWlLk6GJQsqaUBKTNV-1" source="hOxMr86rGuduZTs0c4Mz-23" target="hOxMr86rGuduZTs0c4Mz-25">
          <mxGeometry relative="1" as="geometry" />
        </mxCell>
        <mxCell id="hOxMr86rGuduZTs0c4Mz-20" value="Yes" style="edgeLabel;html=1;align=center;verticalAlign=middle;resizable=0;points=[];" vertex="1" connectable="0" parent="hOxMr86rGuduZTs0c4Mz-19">
          <mxGeometry x="-0.1281" y="-4" relative="1" as="geometry">
            <mxPoint as="offset" />
          </mxGeometry>
        </mxCell>
        <mxCell id="hOxMr86rGuduZTs0c4Mz-21" value="" style="edgeStyle=orthogonalEdgeStyle;rounded=0;orthogonalLoop=1;jettySize=auto;html=1;" edge="1" parent="WIyWlLk6GJQsqaUBKTNV-1" source="hOxMr86rGuduZTs0c4Mz-23" target="hOxMr86rGuduZTs0c4Mz-27">
          <mxGeometry relative="1" as="geometry" />
        </mxCell>
        <mxCell id="hOxMr86rGuduZTs0c4Mz-22" value="No" style="edgeLabel;html=1;align=center;verticalAlign=middle;resizable=0;points=[];" vertex="1" connectable="0" parent="hOxMr86rGuduZTs0c4Mz-21">
          <mxGeometry x="-0.1853" relative="1" as="geometry">
            <mxPoint as="offset" />
          </mxGeometry>
        </mxCell>
        <mxCell id="hOxMr86rGuduZTs0c4Mz-23" value="결과값이 pass인가??" style="rhombus;whiteSpace=wrap;html=1;" vertex="1" parent="WIyWlLk6GJQsqaUBKTNV-1">
          <mxGeometry x="368.255" y="750" width="185.49" height="80" as="geometry" />
        </mxCell>
        <mxCell id="hOxMr86rGuduZTs0c4Mz-24" style="edgeStyle=orthogonalEdgeStyle;rounded=0;orthogonalLoop=1;jettySize=auto;html=1;exitX=0.5;exitY=1;exitDx=0;exitDy=0;entryX=0.5;entryY=0;entryDx=0;entryDy=0;" edge="1" parent="WIyWlLk6GJQsqaUBKTNV-1" source="hOxMr86rGuduZTs0c4Mz-25" target="hOxMr86rGuduZTs0c4Mz-11">
          <mxGeometry relative="1" as="geometry" />
        </mxCell>
        <mxCell id="hOxMr86rGuduZTs0c4Mz-25" value="서보모터 각도&lt;br&gt;90" style="whiteSpace=wrap;html=1;" vertex="1" parent="WIyWlLk6GJQsqaUBKTNV-1">
          <mxGeometry x="200" y="760" width="120" height="60" as="geometry" />
        </mxCell>
        <mxCell id="hOxMr86rGuduZTs0c4Mz-26" value="" style="edgeStyle=orthogonalEdgeStyle;rounded=0;orthogonalLoop=1;jettySize=auto;html=1;" edge="1" parent="WIyWlLk6GJQsqaUBKTNV-1" source="hOxMr86rGuduZTs0c4Mz-27" target="hOxMr86rGuduZTs0c4Mz-29">
          <mxGeometry relative="1" as="geometry" />
        </mxCell>
        <mxCell id="hOxMr86rGuduZTs0c4Mz-27" value="서보모터 각도&lt;br&gt;45" style="whiteSpace=wrap;html=1;" vertex="1" parent="WIyWlLk6GJQsqaUBKTNV-1">
          <mxGeometry x="600.49" y="760" width="120" height="60" as="geometry" />
        </mxCell>
        <mxCell id="hOxMr86rGuduZTs0c4Mz-28" style="edgeStyle=orthogonalEdgeStyle;rounded=0;orthogonalLoop=1;jettySize=auto;html=1;exitX=1;exitY=0.5;exitDx=0;exitDy=0;entryX=1;entryY=0.5;entryDx=0;entryDy=0;" edge="1" parent="WIyWlLk6GJQsqaUBKTNV-1" source="hOxMr86rGuduZTs0c4Mz-29" target="hOxMr86rGuduZTs0c4Mz-1">
          <mxGeometry relative="1" as="geometry" />
        </mxCell>
        <mxCell id="hOxMr86rGuduZTs0c4Mz-29" value="DC모터 5초간 구동" style="whiteSpace=wrap;html=1;" vertex="1" parent="WIyWlLk6GJQsqaUBKTNV-1">
          <mxGeometry x="600.49" y="900" width="120" height="60" as="geometry" />
        </mxCell>
        <mxCell id="hOxMr86rGuduZTs0c4Mz-30" style="edgeStyle=orthogonalEdgeStyle;rounded=0;orthogonalLoop=1;jettySize=auto;html=1;exitX=0.5;exitY=1;exitDx=0;exitDy=0;entryX=0.5;entryY=0;entryDx=0;entryDy=0;" edge="1" parent="WIyWlLk6GJQsqaUBKTNV-1" source="hOxMr86rGuduZTs0c4Mz-31" target="hOxMr86rGuduZTs0c4Mz-18">
          <mxGeometry relative="1" as="geometry" />
        </mxCell>
        <mxCell id="hOxMr86rGuduZTs0c4Mz-31" value="&lt;div style=&quot;border-color: var(--border-color);&quot;&gt;초음파 센서값 출력 및 계산&lt;br&gt;&lt;/div&gt;" style="rounded=0;whiteSpace=wrap;html=1;" vertex="1" parent="WIyWlLk6GJQsqaUBKTNV-1">
          <mxGeometry x="371.995" y="570.5" width="180" height="60" as="geometry" />
        </mxCell>
      </root>
    </mxGraphModel>
  </diagram>
</mxfile>
